<svg xmlns="http://www.w3.org/2000/svg" width="190" height="26.210" viewBox="0 0 190 26.210" fill="none">
  <path d="M 31.237 9.256 C 80.576 4.578 124.288 1.51 155.959 0.502 C 176.646 -0.157 187.77 -0.167 188.962 0.47 C 190.192 1.129 190.372 3.325 189.27 4.239 C 188.831 4.604 182.366 5.316 173.749 5.95 C 146.63 7.945 111.533 11.676 82.884 15.609 C 62.292 18.436 62.062 18.514 75.467 18.117 C 82.115 17.92 103.325 17.758 122.601 17.758 C 153.156 17.758 157.715 17.864 158.169 18.582 C 158.455 19.036 158.693 19.584 158.698 19.799 C 158.728 21.21 154.793 21.416 118.711 21.895 C 79.055 22.422 68.457 22.829 46.896 24.652 C 25.25 26.483 25.488 26.471 24.196 25.78 C 22.717 24.988 22.624 22.935 24.011 21.68 C 26.033 19.851 51.436 15.167 80.961 11.182 C 103.288 8.167 103.434 8.142 96.62 8.46 C 88.12 8.857 60.538 11.154 34.095 13.666 C 20.015 15.004 8.754 15.813 5.524 15.718 C 0.511 15.57 0.183 15.489 0.022 14.355 C -0.26 12.376 1.7 12.056 31.237 9.256 Z" fill="currentColor" fill-rule="nonzero"></path>
</svg>
